<?xml version="1.0" encoding="UTF-8"?>
<svg id="Layer_2" data-name="Layer 2" xmlns="http://www.w3.org/2000/svg" viewBox="0 0 129.19 71.99">
  <defs>
    <style>
      .cls-1 {
        fill: #ffd70e;
      }

      .cls-2 {
        fill: #f9948a;
      }

      .cls-3 {
        fill: #3f4342;
      }

      .cls-4 {
        fill: #aaa9a9;
      }

      .cls-5 {
        fill: #961411;
      }

      .cls-6 {
        fill: #d33225;
      }

      .cls-7 {
        fill: #ba2719;
      }

      .cls-8 {
        fill: #e76957;
      }

      .cls-9 {
        fill: #343434;
      }

      .cls-10 {
        fill: #a51b14;
      }
    </style>
  </defs>
  <g id="OBJECTS">
    <g>
      <path class="cls-4" d="M76.46,63.38l2.03-5.4h28.47c1.48,0,2.9-.22,4.25-.61l-.02.07c4.46-1.28,8.06-4.52,9.85-8.73.03-.06.05-.12.08-.18.14-.35.27-.71.39-1.07.04-.12.08-.24.12-.37.09-.3.16-.61.24-.92.13-.54.23-1.09.3-1.66,0-.01,0-.02,0-.03.04-.37.06-.74.08-1.12,0-.05,0-.09,0-.13h0c0-.19.03-.37.03-.56v-20.25c0-.17-.02-.33-.03-.5h0s0,0,0,0c-.05-1.67-.38-3.28-.93-4.77-.01-.03-.02-.06-.04-.1-.13-.36-.28-.71-.44-1.05,0-.02-.02-.03-.02-.05-.66-1.4-1.52-2.69-2.55-3.82-.04-.05-.08-.09-.13-.14-.24-.25-.48-.5-.73-.74-.05-.04-.09-.08-.14-.13-1.1-1.01-2.35-1.86-3.71-2.51-.07-.03-.13-.06-.2-.09-.31-.14-.63-.28-.95-.4-.08-.03-.15-.06-.23-.08-.56-.2-1.13-.38-1.71-.51h.04c-.13-.04-.25-.06-.38-.09-.06-.01-.12-.03-.18-.04-.46-.09-.93-.16-1.4-.21-.03,0-.07,0-.1,0-.49-.05-.99-.08-1.5-.08h-28.5l-2.04-5.4c-.51-1.35-2.02-2.03-3.37-1.52-1.35.51-2.03,2.02-1.52,3.37l1.34,3.55H10.7c-.33,0-.65.03-.97.08-.17.02-.34.04-.51.07,0,0,0,0,0,0-.21.04-.41.11-.62.16-.29.08-.57.17-.85.28-.22.09-.44.17-.65.28-.16.08-.31.18-.46.27-.19.11-.37.22-.55.34-.14.1-.28.21-.42.33-.17.14-.34.28-.5.43-.12.12-.24.24-.36.37-.16.17-.3.35-.45.54-.1.13-.2.25-.29.39-.15.22-.28.45-.4.68-.06.12-.14.23-.19.36-.17.36-.33.74-.44,1.14l-.29.97c-.27.9-.51,1.8-.74,2.7-.02.06-.03.12-.04.18-.22.88-.42,1.76-.6,2.64,0,0,0,0,0,0h0c-1.82,8.75-1.82,17.78,0,26.53h0s0,0,0,0c.18.88.38,1.76.6,2.64.02.06.03.12.04.18.23.9.47,1.8.74,2.7l.29.97c.12.4.27.77.44,1.14.06.12.13.24.19.36.13.23.26.46.4.68.09.13.19.26.29.38.14.19.29.37.45.54.12.13.23.25.36.37.16.15.33.3.5.43.14.11.27.22.42.33.18.12.36.23.55.34.15.09.3.19.46.27.21.11.43.19.65.28.28.11.56.2.85.28.21.06.41.12.62.16,0,0,0,0,0,0,.48.09.98.15,1.48.15h62.21l-1.34,3.56c-.51,1.35.18,2.86,1.53,3.37,1.35.51,2.86-.18,3.37-1.53Z"/>
      <g>
        <path class="cls-6" d="M9.95,59.2l-.29-.97c-3.68-12.25-3.68-25.32,0-37.57l.29-.97c1.02-3.38,4.13-5.7,7.66-5.7h96.26c8.46,0,15.32,6.86,15.32,15.32v20.25c0,8.46-6.86,15.32-15.32,15.32H17.61c-3.53,0-6.64-2.31-7.66-5.7Z"/>
        <path class="cls-5" d="M27.25,23.08l49.36-1.48,18.92-1.52,21.91-5.66c-1.15-.27-2.33-.42-3.56-.41H17.61c-2.3,0-4.44,1.2-5.91,2.83l6.42,4.24,9.13,2.01Z"/>
        <path class="cls-9" d="M31.16,39.45h0c0-.62.5-1.12,1.12-1.12h1.34c.62,0,1.12.5,1.12,1.12h0c0,.62-.5,1.12-1.12,1.12h-1.34c-.62,0-1.12-.5-1.12-1.12Z"/>
        <g>
          <g>
            <path class="cls-9" d="M83.78,16.13l-6.01,2.33c-2.28.88-4.7,1.35-7.15,1.38l-30.68.28c-1.33.01-2.64-.26-3.84-.82l-7.04-3.23c-.18-.08-.12-.35.08-.35l54.57.06c.21,0,.26.28.07.36Z"/>
            <path class="cls-7" d="M52.6,21.22l2.29-6.44h-1.61l-2.29,6.55s1.84-.11,1.61-.11Z"/>
          </g>
          <g>
            <path class="cls-3" d="M83.78,62.77l-6.01-2.33c-2.28-.88-4.7-1.35-7.15-1.38l-30.68-.28c-1.33-.01-2.64.26-3.84.82l-7.04,3.23c-.18.08-.12.35.08.35l54.57-.06c.21,0,.26-.28.07-.36Z"/>
            <path class="cls-6" d="M52.6,57.68l2.29,6.44h-1.61l-2.29-6.55s1.84.11,1.61.11Z"/>
          </g>
        </g>
        <g>
          <path class="cls-10" d="M81.22,17.79l-2.77-7.34c-.51-1.35.17-2.86,1.52-3.37h0c1.35-.51,2.86.17,3.37,1.52l2.77,7.34-4.89,1.85Z"/>
          <path class="cls-6" d="M81.25,61.11l-2.76,7.35c-.51,1.35.18,2.86,1.53,3.37h0c1.35.51,2.86-.18,3.37-1.53l2.76-7.35-4.89-1.84Z"/>
        </g>
        <g>
          <path class="cls-8" d="M17.38,18.46l1.21-4.46h-.98c-3.53,0-6.64,2.31-7.66,5.7l-.29.97c-.55,1.82-1,3.67-1.39,5.52l7.05-4.83c1.01-.69,1.74-1.72,2.06-2.9Z"/>
          <path class="cls-2" d="M16.13,14.15c-2.89.54-5.31,2.65-6.18,5.55l-.29.97c-.27.9-.52,1.81-.75,2.73,6.1-2.39,7.09-7.11,7.22-9.24Z"/>
        </g>
        <g>
          <path class="cls-8" d="M17.38,60.44l1.21,4.46h-.98c-3.53,0-6.64-2.31-7.66-5.7l-.29-.97c-.55-1.82-1-3.67-1.39-5.52l7.05,4.83c1.01.69,1.74,1.72,2.06,2.9Z"/>
          <path class="cls-2" d="M16.13,64.75c-2.89-.54-5.31-2.65-6.18-5.55l-.29-.97c-.27-.9-.52-1.81-.75-2.73,6.1,2.39,7.09,7.11,7.22,9.24Z"/>
        </g>
        <path class="cls-1" d="M118.1,14.61l.91,2.48c1.48,4.04,4.16,7.53,7.68,10l2.49,1.75c-.22-6.77-4.82-12.43-11.07-14.22Z"/>
        <path class="cls-1" d="M118.1,64.35l.91-2.48c1.48-4.04,4.16-7.53,7.68-10l2.49-1.75c-.22,6.77-4.82,12.43-11.07,14.22Z"/>
        <g>
          <path class="cls-3" d="M75.76,56.91l.65-2.71c2.3-9.58,2.33-19.57.06-29.16l-.72-3.06c-.15-.65.3-1.28.96-1.34l21.51-2.03c.5-.05.96.29,1.06.79l1.51,7.14c1.82,8.63,1.8,17.54-.05,26.16l-1.46,6.79c-.11.49-.56.83-1.06.78l-21.51-2.03c-.66-.06-1.12-.69-.96-1.34Z"/>
          <path class="cls-9" d="M101.79,32.77c-.23-2.08-.55-4.16-.98-6.22l-1.51-7.14c-.1-.49-.56-.83-1.06-.79l-21.51,2.03c-.66.06-1.12.69-.96,1.34l.72,3.06c.6,2.55,1.04,5.13,1.32,7.72h24Z"/>
          <path class="cls-9" d="M95.59,19.4l1.51,7.14c1.82,8.63,1.8,17.54-.05,26.16l-1.46,6.79c-.04.2-.16.37-.3.51l2.94.28c.5.05.96-.29,1.06-.78l1.46-6.79c1.85-8.62,1.87-17.53.05-26.16l-1.51-7.14c-.1-.49-.56-.83-1.06-.79l-2.94.28c.14.14.26.3.3.51Z"/>
        </g>
        <g>
          <path class="cls-3" d="M18.11,58.02l-1.11-7.16c-1.17-7.56-1.17-15.26,0-22.82l1.11-7.16c.05-.33.36-.57.7-.53l11.13,1.28c.36.04.61.37.55.73l-.8,4.79c-1.36,8.14-1.36,16.46,0,24.6l.8,4.79c.06.36-.19.69-.55.73l-11.13,1.28c-.34.04-.64-.2-.7-.53Z"/>
          <path class="cls-9" d="M27.25,50.86l1.02,6.6,1.67-.19c.36-.04.61-.37.55-.73l-.8-4.79c-1.36-8.14-1.36-16.46,0-24.6l.8-4.79c.06-.36-.19-.69-.55-.73l-1.67-.19-1.02,6.6c-1.17,7.56-1.17,15.26,0,22.82Z"/>
          <path class="cls-9" d="M28.98,32.77c.17-1.88.4-3.75.71-5.62l.8-4.79c.06-.36-.19-.69-.55-.73l-11.13-1.28c-.34-.04-.64.2-.7.53l-1.11,7.16c-.24,1.57-.42,3.15-.56,4.73h12.54Z"/>
        </g>
        <g>
          <path class="cls-3" d="M103.69,33.57c-.35,0-.64-.29-.64-.64s.29-.64.64-.64.64.29.64.64-.29.64-.64.64Z"/>
          <circle class="cls-3" cx="103.69" cy="45.97" r=".64"/>
        </g>
      </g>
    </g>
  </g>
</svg>