<?xml version="1.0" encoding="UTF-8"?>
<svg id="Layer_2" data-name="Layer 2" xmlns="http://www.w3.org/2000/svg" viewBox="0 0 134.75 71.7">
  <defs>
    <style>
      .cls-1 {
        fill: #ffd70e;
      }

      .cls-2 {
        fill: #f9948a;
      }

      .cls-3 {
        fill: #e3e5e1;
      }

      .cls-4 {
        fill: #3f4342;
      }

      .cls-5 {
        fill: #fff;
      }

      .cls-6 {
        fill: #1e1e1e;
      }

      .cls-7 {
        fill: #aaa9a9;
      }

      .cls-8 {
        fill: #754e87;
      }

      .cls-9 {
        fill: #9768a9;
      }

      .cls-10 {
        fill: #e76957;
      }

      .cls-11 {
        fill: #343434;
      }
    </style>
  </defs>
  <g id="OBJECTS">
    <g>
      <path class="cls-7" d="M78.9,63.34l1.08-3.01,30.58-.45c9.53-.14,17.15-7.98,17.01-17.51l-.31-21.18c-.14-9.53-7.98-17.15-17.51-17.01l-30.61.45-1.17-2.98c-.53-1.34-2.05-2-3.39-1.47-1.34.53-2,2.05-1.47,3.39l1.26,3.19-35.15.15c-.48-1.29-1.72-2.21-3.17-2.18l-16.76.24c-1.37.02-2.52.86-3.02,2.04h-.79c-.4-.84-1.27-1.43-2.27-1.41l-2.02.03C4.91,5.72-.09,10.87,0,17.13l.48,33.02c.09,6.26,5.24,11.27,11.5,11.17l2.02-.03c1-.01,1.85-.62,2.22-1.48l.79-.02c.53,1.17,1.72,1.97,3.08,1.95l16.76-.24c1.45-.02,2.66-.97,3.1-2.28l35.17-.87-1.16,3.23c-.49,1.36.22,2.85,1.58,3.34,1.36.49,2.85-.22,3.34-1.58Z"/>
      <g>
        <g>
          <rect class="cls-4" x="30.08" y="4.58" width="9.65" height="23.45" rx="3.34" ry="3.34" transform="translate(50.7 -18.83) rotate(89.16)"/>
          <rect class="cls-4" x="30.77" y="51.7" width="9.65" height="23.45" rx="3.34" ry="3.34" transform="translate(98.49 26.91) rotate(89.16)"/>
        </g>
        <g>
          <path class="cls-8" d="M86.98,66.97l-.81-55.7,30.76-.45c9.53-.14,17.37,7.48,17.51,17.01l.31,21.18c.14,9.53-7.48,17.37-17.01,17.51l-30.76.45Z"/>
          <path class="cls-8" d="M23.62,65.42l-.74-50.76c-.02-1.36-1.14-2.45-2.51-2.43l-2.02.03c-6.26.09-11.26,5.24-11.17,11.5l.48,33.02c.09,6.26,5.24,11.26,11.5,11.17l2.02-.03c1.36-.02,2.45-1.14,2.43-2.51Z"/>
          <path class="cls-9" d="M12.52,60.94l-.3-.96c-3.86-12.2-4.08-27.24-.58-39.54l.28-.97c.97-3.4,4.04-5.75,7.57-5.81l96.27-.42c8.46-.12,15.42,6.63,15.54,15.09l.3,20.25c.12,8.46-6.63,15.42-15.09,15.54l-96.24,2.39c-3.53.05-6.68-2.22-7.74-5.58Z"/>
          <path class="cls-8" d="M29.27,23.58l49.33-2.2,18.9-1.79,21.82-5.98c-1.16-.26-2.33-.39-3.57-.36l-96.27.42c-2.3.04-4.42,1.26-5.87,2.91l12.38,5.21,3.28,1.8Z"/>
          <polygon class="cls-5" points="29.92 66.26 85.43 64.87 88.7 62.2 101.84 58.95 100.18 18.08 88.02 15.59 85.1 13.4 29.16 13.64 31.08 16.19 31.05 16.19 25.99 21.78 26.63 59.09 31.66 63.3 31.77 63.3 29.92 66.26"/>
          <polygon class="cls-3" points="101.03 38.91 100.18 18.08 88.02 15.59 85.1 13.4 29.16 13.64 31.08 16.19 31.05 16.19 25.99 21.78 26.3 40 101.03 38.91"/>
          <g>
            <path class="cls-10" d="M19.32,18.12l1.14-4.48h-.98c-3.53.07-6.61,2.43-7.57,5.82l-.28.97c-.52,1.83-.95,3.68-1.31,5.54l6.98-4.93c1-.71,1.71-1.74,2.01-2.93Z"/>
            <path class="cls-2" d="M18.01,13.82c-2.89.59-5.27,2.73-6.1,5.64l-.28.97c-.26.91-.49,1.82-.71,2.74,6.06-2.48,6.99-7.21,7.08-9.35Z"/>
          </g>
          <g>
            <path class="cls-10" d="M19.96,62.06l1.27,4.44h-.98c-3.53.07-6.68-2.2-7.74-5.57l-.3-.96c-.57-1.82-1.06-3.65-1.47-5.5l7.12,4.72c1.02.68,1.76,1.69,2.1,2.87Z"/>
            <path class="cls-2" d="M18.77,66.4c-2.9-.5-5.35-2.58-6.26-5.46l-.3-.96c-.28-.9-.55-1.81-.79-2.72,6.13,2.3,7.2,7,7.35,9.14Z"/>
          </g>
          <path class="cls-1" d="M119.99,13.78l.94,2.46c1.54,4.02,4.27,7.46,7.82,9.88l2.51,1.71c-.32-6.77-5-12.35-11.28-14.05Z"/>
          <path class="cls-1" d="M120.71,63.52l.87-2.49c1.42-4.06,4.05-7.59,7.53-10.11l2.46-1.78c-.12,6.78-4.64,12.5-10.86,14.38Z"/>
          <g>
            <path class="cls-4" d="M78.27,56.7l.61-2.72c2.16-9.61,2.04-19.6-.36-29.16l-.77-3.05c-.16-.64.28-1.28.94-1.35l21.48-2.35c.5-.05.96.28,1.08.77l1.61,7.12c1.95,8.6,2.06,17.51.34,26.16l-1.36,6.82c-.1.49-.55.84-1.05.8l-21.54-1.72c-.66-.05-1.13-.68-.98-1.33Z"/>
            <path class="cls-11" d="M103.94,32.18c-.26-2.08-.61-4.15-1.07-6.21l-1.61-7.12c-.11-.49-.57-.82-1.08-.77l-21.48,2.35c-.66.07-1.11.71-.94,1.35l.77,3.05c.64,2.54,1.11,5.12,1.43,7.7l23.99-.35Z"/>
            <path class="cls-11" d="M97.55,18.91l1.61,7.12c1.95,8.6,2.06,17.51.34,26.16l-1.36,6.82c-.04.2-.15.37-.29.51l2.94.23c.5.04.95-.3,1.05-.8l1.36-6.82c1.72-8.65,1.61-17.56-.34-26.16l-1.61-7.12c-.11-.49-.57-.82-1.08-.77l-2.93.32c.15.13.26.3.31.5Z"/>
          </g>
          <g>
            <path class="cls-4" d="M25.92,58.57l-1.21-7.14c-1.28-7.54-1.39-15.24-.33-22.81l1-7.18c.05-.34.35-.57.69-.54l11.15,1.12c.36.04.61.37.56.72l-.73,4.8c-1.24,8.16-1.12,16.48.36,24.6l.87,4.77c.06.35-.18.69-.54.74l-11.11,1.44c-.34.04-.65-.19-.7-.52Z"/>
            <path class="cls-11" d="M34.95,51.28l1.12,6.59,1.67-.22c.36-.05.6-.38.54-.74l-.87-4.77c-1.48-8.12-1.6-16.44-.36-24.6l.73-4.8c.05-.36-.2-.69-.56-.72l-1.67-.17-.92,6.62c-1.06,7.58-.95,15.27.33,22.81Z"/>
            <path class="cls-11" d="M36.42,33.17c.14-1.88.34-3.76.63-5.63l.73-4.8c.05-.36-.2-.69-.56-.72l-11.15-1.12c-.34-.03-.64.2-.69.54l-1,7.18c-.22,1.57-.38,3.15-.5,4.73l12.54-.18Z"/>
          </g>
          <path class="cls-11" d="M85.69,15.81l-5.97,2.41c-2.27.92-4.68,1.42-7.13,1.48l-30.67.73c-1.33.03-2.64-.23-3.86-.76l-7.09-3.12c-.18-.08-.13-.35.07-.36l54.57-.74c.21,0,.26.28.07.36Z"/>
          <polygon class="cls-6" points="54.86 15.87 53.43 20.16 55.01 20.12 56.46 15.85 54.86 15.87"/>
          <path class="cls-4" d="M86.37,62.44l-6.04-2.24c-2.29-.85-4.72-1.28-7.17-1.27l-30.68.17c-1.33,0-2.63.3-3.83.87l-6.99,3.33c-.18.09-.12.36.08.35l54.57-.85c.21,0,.25-.29.06-.36Z"/>
          <polygon class="cls-11" points="53.99 59.03 55.55 63.28 57.15 63.25 55.58 59.02 53.99 59.03"/>
          <g>
            <path class="cls-8" d="M83.16,17.51l-2.88-7.3c-.53-1.34.13-2.86,1.47-3.39h0c1.34-.53,2.86.13,3.39,1.47l2.88,7.3-4.86,1.92Z"/>
            <path class="cls-9" d="M83.82,60.82l-2.66,7.39c-.49,1.36.22,2.85,1.58,3.34h0c1.36.49,2.85-.22,3.34-1.58l2.66-7.39-4.92-1.77Z"/>
          </g>
        </g>
      </g>
    </g>
  </g>
</svg>