<?xml version="1.0" encoding="UTF-8"?>
<svg id="Layer_2" data-name="Layer 2" xmlns="http://www.w3.org/2000/svg" viewBox="0 0 137.1 71.98">
  <defs>
    <style>
      .cls-1 {
        fill: #ffd70e;
      }

      .cls-2 {
        fill: #f9948a;
      }

      .cls-3 {
        fill: #ebc300;
      }

      .cls-4 {
        fill: #3f4342;
      }

      .cls-5 {
        fill: #fff;
      }

      .cls-6 {
        fill: #aaa9a9;
      }

      .cls-7 {
        fill: #d1a900;
      }

      .cls-8 {
        fill: #e76957;
      }

      .cls-9 {
        fill: #343434;
      }
    </style>
  </defs>
  <g id="OBJECTS">
    <g>
      <path class="cls-6" d="M84.88,63.38l2.02-5.4,33.51-.05c.5,0,.98-.1,1.43-.27,1.01.1,2.02-.35,2.59-1.24,1.05-1.63,2.53-4.25,3.42-7.24.15-.49.01-.99-.29-1.35,1.14-3.27,1.92-6.62,2.31-10.02.1-.85.18-1.7.23-2.56h0c.11-1.85.11-3.71,0-5.57h0c-.05-.85-.13-1.71-.23-2.56-.1-.85-.23-1.7-.38-2.54h0c-.44-2.53-1.1-5.03-1.97-7.47.3-.36.44-.86.29-1.35-.9-2.98-2.39-5.6-3.44-7.23-.57-.88-1.58-1.33-2.6-1.23-.18-.07-.36-.12-.54-.16h0s0,0,0,0c-.29-.07-.59-.11-.89-.11h-.36s-33.19.05-33.19.05l-2.05-5.4c-.51-1.35-2.02-2.03-3.37-1.52-1.35.51-2.03,2.02-1.52,3.37l1.35,3.55-69.24.11h-.77s0,0,0,0c-.4,0-.8.04-1.19.1-.12.02-.25.05-.37.07-.26.05-.52.12-.78.19-.14.04-.27.09-.4.14-.24.09-.47.19-.7.3-.12.06-.25.11-.36.18-.31.17-.61.35-.89.56-.1.08-.2.16-.3.24-.21.17-.41.34-.6.52-.12.12-.23.24-.34.37-.14.16-.28.32-.41.49-.11.14-.21.28-.31.43-.04.06-.08.11-.12.17h.02c-.15.24-.3.47-.42.72-.03.07-.05.15-.08.22-.38,0-.73.24-.83.63l-1.29,5.2c-2.44,9.8-2.42,20.05.05,29.85l1.31,5.2c.1.39.45.63.83.63.03.07.05.15.08.21.38.77.88,1.47,1.47,2.07s1.27,1.1,2.02,1.49c.75.39,1.56.66,2.41.8.43.07.86.1,1.3.1h.77s69.27-.11,69.27-.11l-1.33,3.56c-.51,1.35.18,2.86,1.53,3.36,1.35.51,2.86-.18,3.36-1.53Z"/>
      <g>
        <path class="cls-1" d="M10.53,59.32l-.29-.97c-3.7-12.25-3.72-25.31-.06-37.57l.29-.97c1.01-3.38,4.12-5.7,7.65-5.71l109.14-.17c1.51,0,2.89.83,3.59,2.16l.92,1.76c7.09,13.47,7.12,29.56.07,43.05l-.92,1.76c-.7,1.33-2.08,2.17-3.58,2.17l-109.14.17c-3.53,0-6.65-2.3-7.67-5.68Z"/>
        <path class="cls-5" d="M7.92,31.68c-.2,1.7-.34,3.4-.41,5.1l129.51-.21c-.11-1.71-.32-3.41-.61-5.1l-128.48.2Z"/>
        <path class="cls-5" d="M7.52,42.35c.08,1.7.22,3.41.43,5.1l128.48-.2c.29-1.69.49-3.4.59-5.1l-129.51.21Z"/>
        <path class="cls-7" d="M96.09,19.67l33.12-5.23c-.34-.19-.7-.32-1.07-.41l-1.25-.11-108.78.17c-2.8,0-5.34,1.47-6.77,3.77l3.76,2.03,12.45,1.07,12.38,1.99,34.84-.06,4.01-.33,17.3-2.9Z"/>
        <g>
          <path class="cls-7" d="M89.56,17.78l-2.78-7.34c-.51-1.35.17-2.86,1.52-3.37h0c1.35-.51,2.86.17,3.37,1.52l2.78,7.34-4.89,1.85Z"/>
          <path class="cls-1" d="M89.66,61.1l-2.75,7.35c-.51,1.35.18,2.86,1.53,3.36h0c1.35.51,2.86-.18,3.36-1.53l2.75-7.35-4.89-1.83Z"/>
        </g>
        <g>
          <path class="cls-4" d="M74.84,56.02l.61-2.57c2.17-9.09,2.18-18.56.02-27.65l-.69-2.9c-.15-.61.29-1.21.91-1.27l20.4-1.96c.48-.04.91.28,1.01.74l1.44,6.77c1.74,8.18,1.74,16.63,0,24.8l-1.37,6.45c-.1.47-.53.79-1.01.74l-20.4-1.9c-.63-.06-1.06-.66-.91-1.27Z"/>
          <path class="cls-9" d="M99.48,33.09c-.22-1.98-.53-3.94-.94-5.9l-1.44-6.77c-.1-.47-.53-.79-1.01-.74l-20.4,1.96c-.63.06-1.06.66-.91,1.27l.69,2.9c.57,2.42.99,4.86,1.26,7.32l22.75-.04Z"/>
          <path class="cls-9" d="M93.59,20.42l1.44,6.77c1.74,8.18,1.74,16.63,0,24.8l-1.37,6.45c-.04.19-.15.35-.28.48l2.79.26c.48.04.91-.28,1.01-.74l1.37-6.45c1.74-8.18,1.74-16.63,0-24.8l-1.44-6.77c-.1-.47-.53-.79-1.01-.74l-2.79.27c.14.13.24.29.29.48Z"/>
        </g>
        <g>
          <path class="cls-4" d="M27.61,58.11l-1.12-7.16c-1.18-7.56-1.19-15.25-.04-22.82l1.09-7.16c.05-.33.36-.57.69-.53l11.14,1.26c.36.04.61.37.55.73l-.79,4.79c-1.35,8.15-1.33,16.46.04,24.6l.81,4.79c.06.36-.19.69-.55.73l-11.13,1.3c-.34.04-.64-.19-.7-.53Z"/>
          <path class="cls-9" d="M36.74,50.93l1.03,6.6,1.67-.2c.36-.04.61-.38.55-.73l-.81-4.79c-1.37-8.14-1.39-16.46-.04-24.6l.79-4.79c.06-.36-.19-.69-.55-.73l-1.67-.19-1.01,6.6c-1.16,7.56-1.14,15.26.04,22.82Z"/>
          <path class="cls-9" d="M38.44,32.84c.17-1.88.39-3.75.7-5.62l.79-4.79c.06-.36-.19-.69-.55-.73l-11.14-1.26c-.34-.04-.64.2-.69.53l-1.09,7.16c-.24,1.57-.42,3.15-.56,4.73l12.54-.02Z"/>
        </g>
        <path class="cls-8" d="M18.11,14.1c-3.53,0-6.64,2.33-7.65,5.71l-.21.69h0c3.22,0,6.18-1.79,7.69-4.64l.94-1.77h-.77Z"/>
        <path class="cls-2" d="M18.96,65l-.94-1.76c-1.52-2.84-4.48-4.62-7.7-4.61h0l.21.69c1.02,3.38,4.14,5.69,7.67,5.68h.77Z"/>
        <path class="cls-4" d="M15.78,58.17l-.84-3.22c-2.63-10.09-2.65-20.69-.05-30.79l.83-3.22c.12-.45-.15-.92-.61-1.04l-4.03-1.08c-.46-.12-.93.16-1.05.62l-1.29,5.2c-2.44,9.8-2.42,20.05.05,29.85l1.31,5.2c.12.46.59.74,1.05.62l4.03-1.09c.45-.12.72-.59.6-1.04Z"/>
        <polygon class="cls-3" points="127.33 64.83 96.16 59.18 93.81 64.86 127.33 64.83"/>
        <g>
          <path class="cls-9" d="M80.2,17.4l-5.97,2.34c-1.18.46-2.43.69-3.69.69l-23.79-.11c-2.25-.01-4.34-1.18-5.52-3.1h0c-.47-.75.09-1.72.97-1.71l37.77.59c.74.01.92,1.03.24,1.3Z"/>
          <path class="cls-9" d="M80.27,61.51l-5.98-2.32c-1.18-.46-2.43-.69-3.7-.68l-23.79.19c-2.25.02-4.33,1.19-5.51,3.11h0c-.46.76.09,1.72.98,1.71l37.77-.71c.74-.01.92-1.04.23-1.3Z"/>
        </g>
        <g>
          <path class="cls-8" d="M131.28,15.43c1.06,1.63,2.55,4.24,3.44,7.23.25.85-.31,1.72-1.18,1.88l-.37.07c-.35.06-.7-.09-.89-.39l-5.37-8.35c-.31-.48-.08-1.13.46-1.3l.73-.24c1.19-.39,2.49.07,3.17,1.11Z"/>
          <path class="cls-2" d="M131.36,63.32c1.05-1.63,2.53-4.25,3.42-7.24.25-.85-.31-1.72-1.18-1.87l-.37-.06c-.35-.06-.7.09-.88.39l-5.34,8.37c-.31.48-.08,1.13.47,1.3l.73.23c1.19.38,2.49-.07,3.17-1.12Z"/>
        </g>
      </g>
    </g>
  </g>
</svg>