<?xml version="1.0" encoding="UTF-8"?>
<svg id="Layer_2" data-name="Layer 2" xmlns="http://www.w3.org/2000/svg" viewBox="0 0 124.85 71.88">
  <defs>
    <style>
      .cls-1 {
        fill: #ffd70e;
      }

      .cls-2 {
        fill: #f9948a;
      }

      .cls-3 {
        fill: #e3e5e1;
      }

      .cls-4 {
        fill: #3f4342;
      }

      .cls-5 {
        fill: #fff;
      }

      .cls-6 {
        fill: #1e1e1e;
      }

      .cls-7 {
        fill: #aaa9a9;
      }

      .cls-8 {
        fill: #518417;
      }

      .cls-9 {
        fill: #67ad1f;
      }

      .cls-10 {
        fill: #e76957;
      }

      .cls-11 {
        fill: #343434;
      }
    </style>
  </defs>
  <g id="OBJECTS">
    <g>
      <path class="cls-7" d="M66.53,3.57l1.4,3.53-57.59.84c-.33,0-.65.04-.97.09-.17.02-.34.05-.51.08,0,0,0,0,0,0-.21.04-.41.11-.62.17-.29.08-.57.18-.84.29-.22.09-.44.18-.65.29-.16.08-.31.18-.46.28-.18.11-.37.22-.54.35-.14.1-.28.22-.41.33-.17.14-.33.29-.49.44-.12.12-.24.24-.35.37-.16.17-.3.36-.44.54-.1.13-.19.25-.28.39-.14.22-.27.45-.39.69-.06.12-.13.23-.19.36-.17.37-.32.75-.43,1.14l-.28.97c-.26.9-.49,1.8-.7,2.71-.01.06-.03.12-.04.18-.21.88-.39,1.76-.56,2.65h0s0,0,0,0c-1.69,8.77-1.56,17.8.39,26.52h0s0,0,0,0c.2.88.41,1.76.64,2.63.02.06.03.12.05.18.24.9.5,1.8.78,2.69l.3.96c.12.39.28.77.46,1.13.06.12.13.23.2.35.13.23.26.46.41.67.09.13.19.25.29.38.15.18.3.36.46.53.12.12.24.24.36.36.16.15.33.29.5.43.14.11.28.22.42.32.18.12.37.23.55.34.16.09.31.18.47.26.21.1.44.19.66.27.28.1.56.19.84.27.21.05.41.12.63.15,0,0,0,0,0,0,.48.08.98.14,1.48.13h0s.98-.01.98-.01l56.6-.83-1.24,3.58c-.49,1.36.22,2.85,1.58,3.34s2.85-.22,3.34-1.57l1.88-5.43,28.53-.42c1.48-.02,2.89-.26,4.24-.67l-.02.07c4.44-1.34,8-4.64,9.73-8.88.03-.06.05-.12.07-.18.14-.35.26-.71.38-1.08.04-.12.08-.25.11-.37.08-.3.16-.61.22-.92.12-.54.21-1.1.27-1.66,0-.01,0-.02,0-.03.04-.37.05-.74.07-1.12,0-.05,0-.09,0-.13h0c0-.19.02-.37.02-.56l-.3-20.25c0-.17-.02-.33-.03-.5h0s0,0,0,0c-.08-1.67-.42-3.27-1-4.76-.01-.03-.02-.06-.04-.1-.14-.36-.29-.7-.45-1.05,0-.02-.02-.03-.02-.05-.68-1.39-1.56-2.67-2.6-3.78-.04-.05-.09-.09-.13-.14-.24-.25-.49-.49-.74-.73-.05-.04-.09-.08-.14-.12-1.12-.99-2.38-1.82-3.75-2.45-.07-.03-.13-.06-.2-.09-.31-.14-.63-.27-.95-.38-.08-.03-.15-.05-.23-.08-.56-.19-1.13-.36-1.72-.49h.04c-.13-.04-.26-.06-.38-.08-.06-.01-.12-.02-.18-.03-.46-.09-.93-.15-1.4-.19-.03,0-.07,0-.1,0-.49-.04-.99-.06-1.5-.05l-28.48.42-2.13-5.37c-.53-1.34-2.05-2-3.39-1.47-1.34.53-2,2.05-1.47,3.39Z"/>
      <g>
        <path class="cls-9" d="M10.35,60.06l-.3-.96c-3.86-12.2-4.05-25.26-.55-37.57l.28-.97c.97-3.4,4.04-5.75,7.57-5.81l91.67-1.34c8.46-.12,15.42,6.63,15.54,15.09l.3,20.25c.12,8.46-6.63,15.42-15.09,15.54l-91.67,1.34c-3.53.05-6.68-2.22-7.74-5.58Z"/>
        <path class="cls-8" d="M22.53,23.76l49.33-2.2,18.9-1.79,21.82-5.98c-1.16-.26-2.33-.39-3.57-.36l-91.67,1.34c-2.3.04-4.42,1.26-5.87,2.91l6.48,4.14,4.57,1.95Z"/>
        <g>
          <path class="cls-10" d="M17.18,19.22l1.14-4.48h-.98c-3.53.07-6.61,2.43-7.57,5.82l-.28.97c-.52,1.83-.95,3.68-1.31,5.54l6.98-4.93c1-.71,1.71-1.74,2.01-2.93Z"/>
          <path class="cls-2" d="M15.87,14.92c-2.89.59-5.27,2.73-6.1,5.64l-.28.97c-.26.91-.49,1.82-.71,2.74,6.06-2.48,6.99-7.21,7.08-9.35Z"/>
        </g>
        <g>
          <path class="cls-10" d="M17.79,61.19l1.27,4.44h-.98c-3.53.07-6.68-2.2-7.74-5.57l-.3-.96c-.57-1.82-1.06-3.65-1.47-5.5l7.12,4.72c1.02.68,1.76,1.69,2.1,2.87Z"/>
          <path class="cls-2" d="M16.61,65.52c-2.9-.5-5.35-2.58-6.26-5.46l-.3-.96c-.28-.9-.55-1.81-.79-2.72,6.13,2.3,7.2,7,7.35,9.14Z"/>
        </g>
        <path class="cls-1" d="M113.24,13.96l.94,2.46c1.54,4.02,4.27,7.46,7.82,9.88l2.51,1.71c-.32-6.77-5-12.35-11.28-14.05Z"/>
        <path class="cls-1" d="M113.97,63.7l.87-2.49c1.42-4.06,4.05-7.59,7.53-10.11l2.46-1.78c-.12,6.77-4.64,12.5-10.86,14.38Z"/>
        <path class="cls-4" d="M71.53,56.88l.61-2.72c2.16-9.61,2.04-19.6-.36-29.16l-.77-3.05c-.16-.64.28-1.28.94-1.35l21.48-2.35c.5-.05.96.28,1.08.77l1.61,7.12c1.95,8.6,2.06,17.51.34,26.16l-1.36,6.82c-.1.49-.55.84-1.05.8l-21.54-1.72c-.66-.05-1.13-.68-.98-1.33Z"/>
        <path class="cls-11" d="M97.2,32.36c-.26-2.08-.61-4.15-1.07-6.21l-1.61-7.12c-.11-.49-.57-.82-1.08-.77l-21.48,2.35c-.66.07-1.11.71-.94,1.35l.77,3.05c.64,2.54,1.11,5.12,1.43,7.7l23.99-.35Z"/>
        <path class="cls-11" d="M90.81,19.09l1.61,7.12c1.95,8.6,2.06,17.51.34,26.16l-1.36,6.82c-.04.2-.15.37-.29.51l2.94.23c.5.04.95-.3,1.05-.8l1.36-6.82c1.72-8.65,1.61-17.56-.34-26.16l-1.61-7.12c-.11-.49-.57-.82-1.08-.77l-2.93.32c.15.13.26.3.31.5Z"/>
        <g>
          <path class="cls-11" d="M102.51,32.6l-.09-6.24c0-.65.57-1.15,1.21-1.04l6.33,1.06c.5.08.86.51.87,1.01l.07,5.09c0,.57-.45,1.05-1.02,1.05l-6.32.09c-.57,0-1.05-.45-1.05-1.02Z"/>
          <path class="cls-11" d="M102.69,45.33l.09,6.24c0,.65.6,1.13,1.24,1l6.3-1.24c.49-.1.85-.53.84-1.04l-.07-5.09c0-.57-.48-1.03-1.05-1.02l-6.32.09c-.57,0-1.03.48-1.02,1.05Z"/>
        </g>
        <path class="cls-11" d="M78.95,15.99l-5.97,2.41c-2.27.92-4.68,1.42-7.13,1.48l-30.67.73c-1.33.03-2.64-.23-3.86-.76l-7.08-3.12c-.18-.08-.13-.35.07-.36l54.57-.74c.21,0,.26.28.07.36Z"/>
        <polygon class="cls-6" points="48.12 16.05 46.69 20.34 48.27 20.3 49.72 16.03 48.12 16.05"/>
        <path class="cls-4" d="M79.63,62.62l-6.04-2.24c-2.29-.85-4.72-1.28-7.17-1.27l-30.68.17c-1.33,0-2.63.3-3.83.87l-6.99,3.33c-.18.09-.12.36.08.35l54.57-.85c.21,0,.25-.29.06-.36Z"/>
        <polygon class="cls-11" points="47.25 59.21 48.81 63.46 50.41 63.43 48.83 59.2 47.25 59.21"/>
        <g>
          <path class="cls-11" d="M76.2,17.1l-2.67-6.72c-.53-1.34.13-2.86,1.47-3.39h0c1.34-.53,2.86.13,3.39,1.47l2.67,6.72-4.86,1.92Z"/>
          <path class="cls-4" d="M76.79,61.55l-2.37,6.83c-.49,1.36.22,2.85,1.58,3.34h0c1.36.49,2.85-.22,3.34-1.58l2.37-6.83-4.92-1.77Z"/>
        </g>
        <path class="cls-11" d="M19.55,54.32l.34-14s0-.05,0-.08l-.75-13.99c-.03-.47-.36-.86-.81-.96l-1.99-.44c-.66-.15-1.28.36-1.27,1.03l.21,14.47.21,14.47c0,.67.65,1.16,1.3.99l1.98-.5c.45-.11.77-.52.79-.98Z"/>
        <path class="cls-3" d="M24.97,27.11h2.51c.65,0,1.18.53,1.18,1.18v1.09c0,.65-.53,1.18-1.18,1.18h-2.51c-.65,0-1.18-.53-1.18-1.18v-1.09c0-.65.53-1.18,1.18-1.18Z" transform="translate(54.68 2.2) rotate(89.16)"/>
        <rect class="cls-3" x="24.12" y="49.85" width="4.88" height="3.46" rx="1.18" ry="1.18" transform="translate(77.74 24.27) rotate(89.16)"/>
        <path class="cls-5" d="M19.19,59.15l-.55-37.93c0-.45.3-.84.74-.95l5.09-1.19c.59-.14,1.17.31,1.17.92l.59,40.15c0,.61-.55,1.07-1.15.95l-5.12-1.04c-.44-.09-.76-.47-.77-.92Z"/>
      </g>
    </g>
  </g>
</svg>