<?xml version="1.0" encoding="UTF-8"?>
<svg id="Layer_2" data-name="Layer 2" xmlns="http://www.w3.org/2000/svg" viewBox="0 0 137.45 71.99">
  <defs>
    <style>
      .cls-1 {
        fill: #ffd70e;
      }

      .cls-2 {
        fill: #f9948a;
      }

      .cls-3 {
        fill: #3f4342;
      }

      .cls-4 {
        fill: #aaa9a9;
      }

      .cls-5 {
        fill: #c64a8e;
      }

      .cls-6 {
        fill: #e96fab;
      }

      .cls-7 {
        fill: #e76957;
      }

      .cls-8 {
        fill: #343434;
      }
    </style>
  </defs>
  <g id="OBJECTS">
    <g>
      <path class="cls-4" d="M84.3,63.38l2.03-5.4h33.51c1.51,0,2.89-.84,3.59-2.17l.92-1.76c.56-1.06,1.05-2.14,1.52-3.23.22.04.45.07.68.07,2.2,0,3.98-1.78,3.98-3.98v-28.76c0-2.2-1.78-3.98-3.98-3.98-.23,0-.46.03-.68.07-.04-.09-.08-.19-.12-.28-.12-.29-.25-.57-.39-.85-.32-.7-.66-1.41-1.02-2.1l-.6-1.15-.32-.6c-.26-.5-.62-.93-1.05-1.27-.18-.14-.38-.27-.58-.38h0c-.12-.06-.23-.13-.35-.18-.05-.02-.11-.04-.17-.06,0,0,0,0,0,0-.18-.07-.36-.12-.55-.17h0s0,0,0,0c-.29-.07-.59-.11-.89-.11h-33.54l-2.04-5.4c-.51-1.35-2.02-2.03-3.37-1.52-1.35.51-2.03,2.02-1.52,3.37l1.34,3.56H10.71c-.4,0-.8.04-1.19.1-.04,0-.08,0-.11,0-.09.01-.17.05-.25.06-.26.05-.52.11-.78.19-.14.04-.27.09-.41.14-.24.09-.47.19-.7.3-.12.06-.25.11-.37.18-.31.17-.61.35-.89.56-.1.07-.2.16-.3.24-.21.17-.41.34-.6.52-.12.12-.23.24-.34.37-.14.16-.28.32-.41.49-.11.14-.21.28-.31.43-.04.06-.08.11-.12.17h.02c-.15.24-.3.47-.42.72-.19.39-.35.79-.48,1.22l-.21.69h0l-.08.27C.92,19.88,0,26.21,0,32.54s.92,12.66,2.76,18.79l.29.97c.89,2.96,3.38,5.1,6.36,5.59.42.07.86.11,1.3.11h70.04l-1.34,3.56c-.51,1.35.18,2.86,1.53,3.37,1.35.51,2.86-.18,3.37-1.53Z"/>
      <g>
        <path class="cls-8" d="M129.49,53.83v-28.76c0-2.2,1.78-3.98,3.98-3.98h0c2.2,0,3.98,1.78,3.98,3.98v28.76c0,2.2-1.78,3.98-3.98,3.98h0c-2.2,0-3.98-1.78-3.98-3.98Z"/>
        <path class="cls-6" d="M9.96,59.2l-.29-.97c-3.68-12.25-3.68-25.32,0-37.57l.29-.97c1.02-3.38,4.13-5.7,7.66-5.7h109.14c1.51,0,2.89.83,3.59,2.17l.92,1.76c7.07,13.48,7.07,29.57,0,43.05l-.92,1.76c-.7,1.33-2.08,2.17-3.59,2.17H17.62c-3.53,0-6.64-2.31-7.66-5.7Z"/>
        <path class="cls-5" d="M131.26,17.93l-.92-1.76c-.7-1.33-2.08-2.17-3.59-2.17H17.62c-3.53,0-6.64,2.31-7.66,5.7l-.29.97c-1.84,6.13-2.76,12.46-2.76,18.79h129.66c0-7.39-1.77-14.78-5.3-21.52Z"/>
        <path class="cls-5" d="M95.59,19.7l33.13-5.18c-.33-.19-.7-.32-1.07-.41l-1.25-.11H17.62c-2.8,0-5.34,1.46-6.77,3.76l3.76,2.04,12.44,1.08,12.38,2.01h34.84l4.01-.32,17.31-2.87Z"/>
        <g>
          <path class="cls-5" d="M89.06,17.79l-2.77-7.34c-.51-1.35.17-2.86,1.52-3.37h0c1.35-.51,2.86.17,3.37,1.52l2.77,7.34-4.89,1.85Z"/>
          <path class="cls-6" d="M89.09,61.11l-2.76,7.35c-.51,1.35.18,2.86,1.53,3.37h0c1.35.51,2.86-.18,3.37-1.53l2.76-7.35-4.89-1.84Z"/>
        </g>
        <g>
          <path class="cls-3" d="M71.47,56.01l.62-2.57c2.18-9.08,2.21-18.56.06-27.65l-.68-2.9c-.14-.61.29-1.21.91-1.27l25.34-1.93c.48-.04.91.28,1.01.75l1.43,6.77c1.73,8.18,1.71,16.63-.04,24.8l-1.38,6.44c-.1.47-.53.79-1.01.74l-25.33-1.93c-.63-.06-1.06-.66-.91-1.27Z"/>
          <path class="cls-8" d="M101.09,33.11c-.21-1.98-.52-3.95-.93-5.9l-1.43-6.77c-.1-.47-.53-.79-1.01-.75l-25.34,1.93c-.63.06-1.06.66-.91,1.27l.68,2.9c.57,2.42.98,4.87,1.25,7.32h27.69Z"/>
          <path class="cls-8" d="M95.22,20.44l1.43,6.77c1.73,8.18,1.71,16.63-.04,24.8l-1.38,6.44c-.04.19-.15.35-.28.48l2.79.26c.48.04.91-.28,1.01-.74l1.38-6.44c1.75-8.17,1.77-16.62.04-24.8l-1.43-6.77c-.1-.47-.53-.79-1.01-.75l-2.79.26c.14.13.24.29.29.48Z"/>
        </g>
        <g>
          <path class="cls-3" d="M21.38,58.02l-1.11-7.16c-1.17-7.56-1.17-15.26,0-22.82l1.11-7.16c.05-.33.36-.57.7-.53l19.03,1.28c.36.04.61.37.55.73l-.8,4.79c-1.36,8.14-1.36,16.46,0,24.6l.8,4.79c.06.36-.19.69-.55.73l-19.03,1.28c-.34.04-.64-.2-.7-.53Z"/>
          <path class="cls-8" d="M38.42,50.86l1.02,6.6,1.67-.19c.36-.04.61-.37.55-.73l-.8-4.79c-1.36-8.14-1.36-16.46,0-24.6l.8-4.79c.06-.36-.19-.69-.55-.73l-1.67-.19-1.02,6.6c-1.17,7.56-1.17,15.26,0,22.82Z"/>
          <path class="cls-8" d="M40.15,32.77c.17-1.88.4-3.75.71-5.62l.8-4.79c.06-.36-.19-.69-.55-.73l-19.03-1.28c-.34-.04-.64.2-.7.53l-1.11,7.16c-.24,1.57-.42,3.15-.56,4.73h20.44Z"/>
        </g>
        <path class="cls-7" d="M17.62,14c-3.53,0-6.64,2.31-7.66,5.7l-.21.69h0c3.22,0,6.18-1.78,7.7-4.62l.94-1.76h-.77Z"/>
        <path class="cls-2" d="M18.39,64.9l-.94-1.76c-1.51-2.84-4.47-4.62-7.7-4.62h0l.21.69c1.02,3.38,4.13,5.7,7.66,5.7h.77Z"/>
        <polygon class="cls-5" points="126.76 64.9 95.59 59.21 93.23 64.88 126.76 64.9"/>
        <path class="cls-1" d="M122.43,17.12c1.03,1.84,2.53,4.72,2.53,4.72,0,0,4.53-.43,8.96,2.22-.74-2.09-1.61-4.14-2.65-6.14l-.92-1.76s-2.99-.62-7.91.95Z"/>
        <path class="cls-1" d="M122.43,61.72c1.03-1.84,2.53-4.72,2.53-4.72,0,0,4.53.43,8.96-2.22-.74,2.09-1.61,4.14-2.65,6.14l-.92,1.76s-2.99.62-7.91-.95Z"/>
        <g>
          <path class="cls-8" d="M86.86,16.75l-13.36,2.48c-1.43.49-4.98.79-6.49.73l-25.21-.93c-.38-.01-.42-.56-.05-.63l8.38-1.75c4.55-.95,9.21-1.34,13.85-1.14l22.8.62c.35.01.43.51.09.62Z"/>
          <path class="cls-3" d="M86.86,62.15l-13.36-2.48c-1.43-.49-4.98-.79-6.49-.73l-25.21.93c-.38.01-.42.56-.05.63l8.38,1.75c4.55.95,9.21,1.34,13.85,1.14l22.8-.62c.35-.01.43-.51.09-.62Z"/>
        </g>
        <g>
          <path class="cls-8" d="M68.59,45.05v-11.21c0-.39.32-.71.71-.71h0c.39,0,.71.32.71.71v11.21c0,.39-.32.71-.71.71h0c-.39,0-.71-.32-.71-.71Z"/>
          <path class="cls-8" d="M65.94,45.05v-11.21c0-.39.32-.71.71-.71h0c.39,0,.71.32.71.71v11.21c0,.39-.32.71-.71.71h0c-.39,0-.71-.32-.71-.71Z"/>
          <path class="cls-8" d="M63.3,45.05v-11.21c0-.39.32-.71.71-.71h0c.39,0,.71.32.71.71v11.21c0,.39-.32.71-.71.71h0c-.39,0-.71-.32-.71-.71Z"/>
        </g>
      </g>
    </g>
  </g>
</svg>