<?xml version="1.0" encoding="UTF-8"?>
<svg id="Layer_2" data-name="Layer 2" xmlns="http://www.w3.org/2000/svg" viewBox="0 0 131.94 71.99">
  <defs>
    <style>
      .cls-1 {
        fill: #ffd70e;
      }

      .cls-2 {
        fill: #f9948a;
      }

      .cls-3 {
        fill: #4485bb;
      }

      .cls-4 {
        fill: #519fdc;
      }

      .cls-5 {
        fill: #e3e5e1;
      }

      .cls-6 {
        fill: #3f4342;
      }

      .cls-7 {
        fill: #fff;
      }

      .cls-8 {
        fill: #1e1e1e;
      }

      .cls-9 {
        fill: #aaa9a9;
      }

      .cls-10 {
        fill: #e76957;
      }

      .cls-11 {
        fill: #343434;
      }
    </style>
  </defs>
  <g id="OBJECTS">
    <g>
      <path class="cls-9" d="M78.15,1.69c-.51-1.35-2.02-2.03-3.37-1.52-1.35.51-2.03,2.02-1.52,3.37l1.21,3.2-35.15-.3c-.46-1.3-1.69-2.23-3.14-2.23l-16.76.03c-1.37,0-2.53.83-3.05,2h-.79c-.39-.86-1.25-1.46-2.25-1.45h-2.02C5.06,4.8,0,9.88,0,16.15l.05,33.03c0,6.26,5.1,11.33,11.36,11.32h2.02c1,0,1.86-.6,2.24-1.46h.79c.52,1.16,1.69,1.98,3.06,1.98l16.76-.03c1.45,0,2.68-.94,3.13-2.24l35.18-.42-1.2,3.21c-.51,1.35.18,2.86,1.53,3.36s2.86-.18,3.36-1.53l1.91-5.11,2.27-.03c.27,1.58,1.64,2.78,3.29,2.77l16.76-.03c1.73,0,3.14-1.33,3.3-3.02l2.95-.03c.12,0,.24-.02.36-.02v.1c0,1.36,1.1,2.47,2.47,2.47,7.38.01,13.37-5.96,13.38-13.34l.05-28.99c.01-7.38-5.96-13.37-13.34-13.38h0c-1.3,0-2.35,1-2.45,2.27-.18,0-.36-.01-.54-.01l-2.98-.03c-.26-1.59-1.63-2.8-3.29-2.8l-16.76.03c-1.58,0-2.89,1.1-3.24,2.57l-2.34-.02-1.94-5.1Z"/>
      <g>
        <g>
          <rect class="cls-6" x="29.9" y="4.24" width="9.65" height="23.45" rx="3.34" ry="3.34" transform="translate(50.64 -18.79) rotate(89.91)"/>
          <rect class="cls-6" x="29.98" y="51.37" width="9.65" height="23.44" rx="3.34" ry="3.34" transform="translate(97.84 28.18) rotate(89.91)"/>
        </g>
        <g>
          <rect class="cls-6" x="96.14" y="4.24" width="9.65" height="23.45" rx="3.34" ry="3.34" transform="translate(116.77 -85.03) rotate(89.91)"/>
          <rect class="cls-6" x="96.22" y="51.37" width="9.65" height="23.44" rx="3.34" ry="3.34" transform="translate(163.98 -38.06) rotate(89.91)"/>
        </g>
        <path class="cls-3" d="M22.81,64.93l-.08-50.77c0-1.36-1.11-2.47-2.47-2.47h-2.02c-6.26.01-11.33,5.1-11.32,11.36l.05,33.03c0,6.26,5.1,11.33,11.36,11.32h2.02c1.36,0,2.47-1.11,2.47-2.48Z"/>
        <path class="cls-3" d="M116.05,64.93l.08-50.77c0-1.36,1.11-2.47,2.47-2.47h0c7.38.01,13.35,6,13.34,13.38l-.05,28.99c-.01,7.38-6,13.35-13.38,13.34h0c-1.36,0-2.47-1.11-2.47-2.47Z"/>
        <path class="cls-4" d="M11.76,60.3l-.29-.97c-3.7-12.25-3.72-27.29-.06-39.55l.29-.97c1.01-3.38,4.12-5.7,7.65-5.71l96.27.83c8.46-.01,15.33,6.83,15.34,15.3l.03,20.26c.01,8.46-6.83,15.33-15.3,15.34l-96.26,1.14c-3.53,0-6.65-2.3-7.67-5.68Z"/>
        <path class="cls-3" d="M29,23.17l49.35-1.56,18.92-1.55,21.9-5.7c-1.15-.27-2.33-.42-3.56-.41l-96.27-.83c-2.3.01-4.44,1.2-5.91,2.84l12.31,5.37,3.25,1.84Z"/>
        <polygon class="cls-7" points="29.1 65.85 84.62 65.18 87.92 62.56 101.11 59.47 99.98 18.59 87.85 15.94 84.95 13.71 29.01 13.22 30.91 15.8 30.88 15.8 25.75 21.32 25.89 58.64 30.87 62.91 30.98 62.91 29.1 65.85"/>
        <polygon class="cls-5" points="100.55 39.42 99.98 18.59 87.85 15.94 84.95 13.71 29.01 13.22 30.91 15.8 30.88 15.8 25.75 21.32 25.82 39.54 100.55 39.42"/>
        <g>
          <path class="cls-10" d="M19.12,17.58l1.2-4.46h-.98c-3.53,0-6.64,2.33-7.65,5.71l-.29.97c-.55,1.83-1,3.67-1.38,5.52l7.04-4.84c1.01-.69,1.73-1.72,2.05-2.9Z"/>
          <path class="cls-2" d="M17.87,13.26c-2.89.55-5.3,2.66-6.17,5.56l-.29.97c-.27.9-.52,1.81-.75,2.73,6.09-2.4,7.08-7.12,7.2-9.26Z"/>
        </g>
        <g>
          <path class="cls-10" d="M19.19,61.52l1.22,4.46h-.98c-3.53,0-6.65-2.3-7.67-5.68l-.29-.97c-.55-1.82-1.01-3.67-1.4-5.52l7.06,4.82c1.01.69,1.74,1.71,2.06,2.89Z"/>
          <path class="cls-2" d="M17.95,65.84c-2.9-.54-5.31-2.65-6.19-5.54l-.29-.97c-.27-.9-.52-1.81-.75-2.73,6.1,2.38,7.11,7.1,7.23,9.23Z"/>
        </g>
        <path class="cls-1" d="M119.84,14.55l.91,2.47c1.49,4.04,4.17,7.52,7.69,9.98l2.49,1.74c-.23-6.77-4.84-12.42-11.09-14.2Z"/>
        <path class="cls-1" d="M119.91,64.29l.9-2.48c1.47-4.04,4.15-7.53,7.66-10.01l2.48-1.75c-.21,6.77-4.8,12.43-11.05,14.23Z"/>
        <g>
          <path class="cls-6" d="M25.2,58.11l-1.12-7.16c-1.18-7.56-1.19-15.25-.04-22.82l1.09-7.16c.05-.33.36-.57.69-.53l11.14,1.26c.36.04.61.37.55.73l-.79,4.79c-1.35,8.15-1.33,16.46.04,24.6l.81,4.79c.06.36-.19.69-.55.73l-11.13,1.3c-.34.04-.64-.19-.7-.53Z"/>
          <path class="cls-11" d="M34.32,50.94l1.03,6.6,1.67-.19c.36-.04.61-.38.55-.73l-.81-4.79c-1.37-8.14-1.39-16.46-.04-24.6l.79-4.79c.06-.36-.19-.69-.55-.73l-1.67-.19-1.01,6.6c-1.16,7.56-1.14,15.26.04,22.82Z"/>
          <path class="cls-11" d="M36.03,32.84c.17-1.88.39-3.75.7-5.62l.79-4.79c.06-.36-.19-.69-.55-.73l-11.14-1.26c-.34-.04-.64.2-.69.53l-1.09,7.16c-.24,1.57-.42,3.15-.56,4.73l12.54-.02Z"/>
        </g>
        <path class="cls-11" d="M85.52,16.13l-6,2.34c-2.28.89-4.7,1.36-7.15,1.39l-30.68.33c-1.33.02-2.64-.26-3.85-.81l-7.04-3.22c-.18-.08-.12-.35.08-.35l54.57-.03c.21,0,.26.28.07.36Z"/>
        <polygon class="cls-8" points="54.69 15.79 53.2 20.06 54.78 20.04 56.29 15.79 54.69 15.79"/>
        <path class="cls-6" d="M85.59,62.76l-6.01-2.32c-2.28-.88-4.71-1.34-7.15-1.36l-30.68-.23c-1.33-.01-2.64.27-3.84.82l-7.03,3.24c-.18.08-.12.35.08.35l54.57-.14c.21,0,.26-.29.07-.36Z"/>
        <polygon class="cls-11" points="53.26 58.94 54.76 63.2 56.36 63.2 54.84 58.95 53.26 58.94"/>
        <g>
          <path class="cls-3" d="M82.96,17.79l-2.78-7.34c-.51-1.35.17-2.86,1.52-3.37h0c1.35-.51,2.86.17,3.37,1.52l2.78,7.34-4.89,1.85Z"/>
          <path class="cls-4" d="M83.06,61.11l-2.75,7.35c-.51,1.35.18,2.86,1.53,3.36h0c1.35.51,2.86-.18,3.36-1.53l2.75-7.35-4.89-1.83Z"/>
        </g>
        <g>
          <polygon class="cls-3" points="130.93 50.05 101.04 59.42 102.19 54.28 130.93 50.05"/>
          <polygon class="cls-3" points="130.93 28.75 101.04 19.37 102.19 24.51 130.93 28.75"/>
        </g>
        <g>
          <path class="cls-6" d="M77.57,56.92l.65-2.71c2.29-9.58,2.29-19.57.02-29.16l-.73-3.06c-.15-.65.3-1.28.96-1.34l21.51-2.07c.5-.05.96.29,1.07.78l1.52,7.14c1.83,8.62,1.83,17.54,0,26.16l-1.45,6.8c-.11.49-.56.83-1.06.78l-21.51-2c-.66-.06-1.12-.69-.96-1.34Z"/>
          <path class="cls-11" d="M103.55,32.73c-.23-2.08-.55-4.16-.99-6.22l-1.52-7.14c-.1-.49-.56-.83-1.07-.78l-21.51,2.07c-.66.06-1.12.69-.96,1.34l.73,3.06c.61,2.55,1.05,5.13,1.33,7.72l24-.04Z"/>
          <path class="cls-11" d="M97.34,19.38l1.52,7.14c1.83,8.62,1.83,17.54,0,26.16l-1.45,6.8c-.04.2-.16.37-.3.51l2.94.27c.5.04.96-.29,1.06-.78l1.45-6.8c1.84-8.62,1.84-17.53,0-26.16l-1.52-7.14c-.1-.49-.56-.83-1.07-.78l-2.94.28c.14.13.26.3.3.51Z"/>
        </g>
        <path class="cls-6" d="M15.27,50.13v-21.9c0-.69.56-1.24,1.24-1.24h0c.69,0,1.24.56,1.24,1.24v21.9c0,.69-.56,1.24-1.24,1.24h0c-.69,0-1.24-.56-1.24-1.24Z"/>
      </g>
    </g>
  </g>
</svg>