<?xml version="1.0" encoding="UTF-8"?>
<svg id="Layer_2" data-name="Layer 2" xmlns="http://www.w3.org/2000/svg" viewBox="0 0 124.61 71.99">
  <defs>
    <style>
      .cls-1 {
        fill: #ffd70e;
      }

      .cls-2 {
        fill: #f9948a;
      }

      .cls-3 {
        fill: #52534d;
      }

      .cls-4 {
        fill: #e3e5e1;
      }

      .cls-5 {
        fill: #3f4342;
      }

      .cls-6 {
        fill: #fff;
      }

      .cls-7 {
        fill: #1e1e1e;
      }

      .cls-8 {
        fill: #aaa9a9;
      }

      .cls-9 {
        fill: #e76957;
      }

      .cls-10 {
        fill: #63625d;
      }

      .cls-11 {
        fill: #343434;
      }
    </style>
  </defs>
  <g id="OBJECTS">
    <g>
      <path class="cls-8" d="M71.88,63.38l1.96-5.4h28.54c.42,0,.83-.03,1.24-.06v.06c6.31-.5,11.52-4.83,13.36-10.66.02-.06.04-.12.06-.18.11-.37.21-.76.29-1.14.03-.12.06-.24.08-.36.06-.31.1-.62.14-.93.03-.2.06-.39.08-.59,0-.01,0-.03,0-.04h0c.04-.47.07-.94.07-1.42v-20.25c0-.46-.03-.91-.07-1.35h0c-.03-.38-.09-.75-.15-1.12-.02-.1-.03-.21-.05-.31-.06-.34-.14-.68-.23-1.01-.03-.13-.06-.25-.1-.38-.09-.32-.19-.63-.3-.94-.05-.13-.09-.26-.14-.39-.12-.3-.24-.6-.38-.9-.06-.12-.12-.24-.18-.36-.15-.29-.3-.58-.46-.87-.06-.11-.13-.21-.19-.31-.18-.29-.36-.58-.56-.86-.05-.07-.1-.13-.15-.2-1.23-1.69-2.8-3.11-4.61-4.18-.05-.03-.1-.06-.15-.09-.33-.19-.66-.36-1-.52-.07-.04-.15-.07-.22-.11-.34-.15-.68-.29-1.02-.42-.08-.03-.17-.06-.25-.09-.35-.12-.71-.24-1.07-.34-.08-.02-.16-.04-.24-.06-.09-.02-.18-.05-.28-.07h.04c-.13-.04-.25-.06-.38-.09-.06-.01-.12-.03-.18-.04-.46-.09-.93-.16-1.4-.21-.03,0-.07,0-.1,0-.49-.05-.99-.08-1.5-.08h-28.49l-2.05-5.4c-.51-1.35-2.02-2.03-3.37-1.52s-2.03,2.02-1.52,3.37l1.35,3.55H10.7c-.33,0-.65.03-.97.08-.17.02-.34.04-.51.07,0,0,0,0,0,0-.21.04-.42.11-.63.16-.29.08-.56.17-.84.28-.22.09-.44.17-.66.28-.16.08-.31.18-.46.27-.19.11-.37.22-.55.34-.14.1-.28.21-.42.33-.17.14-.34.28-.5.43-.12.12-.24.24-.36.37-.16.17-.31.35-.45.54-.1.13-.2.25-.29.38-.09.14-.18.29-.27.43-.06.1-.11.2-.17.3-.05.1-.11.2-.17.31-.03.07-.06.14-.09.21-.13.3-.25.6-.35.92,0,0,0,0,0,0l-.29.97c-.27.9-.51,1.8-.74,2.71-.01.05-.02.1-.04.16-2.63,10.45-2.63,21.39,0,31.85.01.05.02.1.04.16.23.91.47,1.81.74,2.71l.29.97s0,0,0,0c.09.29.2.56.31.83.04.1.08.2.13.3.06.12.13.24.19.35.13.23.26.46.4.68.09.13.19.26.29.38.14.19.29.37.45.54.12.13.23.25.36.37.16.15.33.3.5.43.14.11.27.22.42.32.18.12.36.23.55.34.15.09.3.19.46.27.21.11.43.19.66.28.27.11.55.2.84.28.21.06.41.12.62.16,0,0,0,0,0,0,.48.09.98.15,1.48.15h57.58l-1.29,3.56c-.51,1.35.18,2.86,1.53,3.37,1.35.51,2.86-.18,3.37-1.53Z"/>
      <g>
        <path class="cls-10" d="M9.96,59.2l-.29-.97c-3.68-12.25-3.68-25.32,0-37.57l.29-.97c1.02-3.38,4.13-5.7,7.66-5.7h91.68c8.46,0,15.32,6.86,15.32,15.32v20.25c0,8.46-6.86,15.32-15.32,15.32H17.61c-3.53,0-6.64-2.31-7.66-5.7Z"/>
        <path class="cls-3" d="M23.49,53.63V18.73l-11.8-2.07c-.78.86-1.39,1.88-1.73,3.04l-.29.97c-3.68,12.25-3.68,25.32,0,37.57l.29.97c.14.48.34.93.57,1.37l10.22-3.19c1.64-.51,2.76-2.03,2.76-3.75Z"/>
        <path class="cls-3" d="M22.67,23.08l49.36-1.48,18.92-1.52,21.91-5.66c-1.15-.27-2.33-.42-3.56-.41H17.61c-2.3,0-4.44,1.2-5.91,2.83l6.42,4.24,4.54,2.01Z"/>
        <g>
          <path class="cls-9" d="M17.38,18.46l1.21-4.46h-.98c-3.53,0-6.64,2.31-7.66,5.7l-.29.97c-.55,1.82-1,3.67-1.39,5.52l7.05-4.83c1.01-.69,1.74-1.72,2.06-2.9Z"/>
          <path class="cls-2" d="M16.13,14.15c-2.89.54-5.31,2.65-6.18,5.55l-.29.97c-.27.9-.52,1.81-.75,2.73,6.1-2.39,7.09-7.11,7.22-9.25Z"/>
        </g>
        <g>
          <path class="cls-9" d="M17.38,60.44l1.21,4.46h-.98c-3.53,0-6.64-2.31-7.66-5.7l-.29-.97c-.55-1.82-1-3.67-1.39-5.52l7.05,4.83c1.01.69,1.74,1.72,2.06,2.9Z"/>
          <path class="cls-2" d="M16.13,64.75c-2.89-.54-5.31-2.65-6.18-5.55l-.29-.97c-.27-.9-.52-1.81-.75-2.73,6.1,2.39,7.09,7.11,7.22,9.24Z"/>
        </g>
        <path class="cls-5" d="M71.18,56.91l.65-2.71c2.3-9.58,2.33-19.57.06-29.16l-.72-3.06c-.15-.65.3-1.28.96-1.34l21.51-2.03c.5-.05.96.29,1.06.79l1.51,7.14c1.82,8.63,1.8,17.54-.05,26.16l-1.46,6.79c-.11.49-.56.83-1.06.78l-21.51-2.03c-.66-.06-1.12-.69-.96-1.34Z"/>
        <path class="cls-11" d="M97.2,32.77c-.23-2.08-.55-4.16-.98-6.22l-1.51-7.14c-.1-.49-.56-.83-1.06-.79l-21.51,2.03c-.66.06-1.12.69-.96,1.34l.72,3.06c.6,2.55,1.04,5.13,1.32,7.72h24Z"/>
        <path class="cls-11" d="M91.01,19.4l1.51,7.14c1.82,8.63,1.8,17.54-.05,26.16l-1.46,6.79c-.04.2-.16.37-.3.51l2.94.28c.5.05.96-.29,1.06-.78l1.46-6.79c1.85-8.62,1.87-17.53.05-26.16l-1.51-7.14c-.1-.49-.56-.83-1.06-.79l-2.94.28c.14.14.26.3.3.51Z"/>
        <path class="cls-11" d="M79.19,16.13l-6.01,2.33c-2.28.88-4.7,1.35-7.15,1.38l-30.68.28c-1.33.01-2.64-.26-3.84-.82l-7.04-3.23c-.18-.08-.12-.35.08-.35l54.57.06c.21,0,.26.28.07.36Z"/>
        <polygon class="cls-7" points="48.36 15.74 46.87 20.01 48.45 20 49.97 15.74 48.36 15.74"/>
        <path class="cls-5" d="M79.19,62.77l-6.01-2.33c-2.28-.88-4.7-1.35-7.15-1.38l-30.68-.28c-1.33-.01-2.64.26-3.84.82l-7.04,3.23c-.18.08-.12.35.08.35l54.57-.06c.21,0,.26-.28.07-.36Z"/>
        <polygon class="cls-11" points="46.87 58.89 48.36 63.16 49.97 63.15 48.45 58.9 46.87 58.89"/>
        <g>
          <path class="cls-11" d="M76.43,17.2l-2.57-6.76c-.51-1.35.17-2.86,1.52-3.37h0c1.35-.51,2.86.17,3.37,1.52l2.57,6.76-4.89,1.85Z"/>
          <path class="cls-5" d="M76.37,61.66l-2.47,6.8c-.51,1.35.18,2.86,1.53,3.37h0c1.35.51,2.86-.18,3.37-1.53l2.47-6.8-4.89-1.84Z"/>
        </g>
        <path class="cls-11" d="M19.25,53.6l.54-14s0-.05,0-.08l-.54-14c-.02-.47-.34-.86-.8-.97l-1.99-.47c-.65-.16-1.28.34-1.28,1.01v28.94c0,.67.63,1.17,1.28,1.01l1.99-.47c.45-.11.78-.51.8-.97Z"/>
        <g>
          <path class="cls-4" d="M30.24,24.94h0c0-.81.66-1.48,1.48-1.48h31.47c.81,0,1.48.66,1.48,1.48h0c0,.81-.66,1.48-1.48,1.48h-31.47c-.81,0-1.48-.66-1.48-1.48Z"/>
          <path class="cls-6" d="M30.24,53.96h0c0-.81.66-1.48,1.48-1.48h31.47c.81,0,1.48.66,1.48,1.48h0c0,.81-.66,1.48-1.48,1.48h-31.47c-.81,0-1.48-.66-1.48-1.48Z"/>
        </g>
        <path class="cls-1" d="M110.53,14.06v4.56s9.56,1.04,9.56,9.34h4.46c-.65-7.42-6.58-13.31-14.02-13.9Z"/>
        <path class="cls-1" d="M110.53,64.9v-4.56s9.56-1.04,9.56-9.34h4.46c-.65,7.42-6.58,13.31-14.02,13.9Z"/>
      </g>
    </g>
  </g>
</svg>