<?xml version="1.0" encoding="UTF-8"?>
<svg id="Layer_2" data-name="Layer 2" xmlns="http://www.w3.org/2000/svg" viewBox="0 0 124.61 71.99">
  <defs>
    <style>
      .cls-1 {
        fill: #ffd70e;
      }

      .cls-2 {
        fill: #f9948a;
      }

      .cls-3 {
        fill: #109b97;
      }

      .cls-4 {
        fill: #3f4342;
      }

      .cls-5 {
        fill: #aaa9a9;
      }

      .cls-6 {
        fill: #e76957;
      }

      .cls-7 {
        fill: #13abac;
      }

      .cls-8 {
        fill: #2cbdc1;
      }

      .cls-9 {
        fill: #343434;
      }
    </style>
  </defs>
  <g id="OBJECTS">
    <g>
      <path class="cls-5" d="M71.88,63.38l1.03-2.85h20.33c1.53,0,3.02-.54,4.19-1.53l1.18-.99,3.77-.04c1.48,0,2.9-.22,4.25-.61l-.02.07c4.46-1.28,8.07-4.52,9.85-8.73.03-.06.05-.12.08-.18.14-.35.27-.71.39-1.07.04-.12.08-.24.12-.37.09-.3.16-.61.24-.92.13-.54.23-1.09.3-1.66,0-.01,0-.02,0-.03.04-.37.06-.74.08-1.12,0-.05,0-.09,0-.13h0c0-.19.03-.37.03-.56v-20.25c0-.17-.02-.33-.03-.5h0c-.05-1.67-.38-3.28-.93-4.77-.01-.03-.02-.07-.04-.1-.13-.36-.28-.71-.44-1.05,0-.02-.02-.03-.02-.05-.66-1.4-1.52-2.69-2.55-3.82-.04-.05-.09-.09-.13-.14-.24-.25-.48-.5-.73-.74-.05-.04-.09-.08-.14-.13-1.1-1.01-2.35-1.86-3.71-2.51-.07-.03-.13-.06-.2-.09-.31-.14-.63-.28-.95-.4-.08-.03-.15-.06-.23-.08-.34-.12-.68-.24-1.03-.34h.02c-.35-.1-.7-.19-1.06-.27-.09-.02-.18-.03-.27-.05-.4-.08-.81-.14-1.22-.19-.06,0-.12-.01-.19-.02-.49-.05-.99-.08-1.49-.08l-3.78-.04-1.16-.98c-1.17-.99-2.66-1.53-4.19-1.53h-20.32l-1.08-2.85c-.51-1.35-2.02-2.03-3.37-1.52s-2.03,2.02-1.52,3.37l1.21,3.18-12.82-.14-5.89-.06-12.55-1.66c-1.21-.16-2.43-.24-3.66-.24H11.99c-.57,0-1.12.15-1.61.45l-3.9,2.24h.02c-.13.08-.26.17-.38.26-.1.07-.2.14-.3.22-.27.21-.54.44-.78.68-.02.02-.04.04-.06.06-.26.27-.5.56-.72.86-.07.09-.13.19-.19.28-.16.23-.3.48-.43.73-.05.1-.11.2-.16.31-.17.35-.31.71-.43,1.09l-.29.97c-.3,1.01-.57,2.05-.83,3.1-.06.23-.11.47-.17.7C-.36,25.78-.57,36.14,1.15,45.58c-.02,0-.03-.02-.05-.02.43,2.4.97,4.73,1.65,6.98l.29.97c.76,2.53,2.69,4.46,5.09,5.27,0-.02,0-.04,0-.05l2.25,1.29c.48.29,1.04.45,1.61.45h21.26c1.22,0,2.44-.08,3.66-.24l12.52-1.66,18.72-.2-1.16,3.19c-.51,1.35.18,2.86,1.53,3.37,1.35.51,2.86-.18,3.37-1.53Z"/>
      <g>
        <path class="cls-8" d="M79.07,67.45h21.09c1.53,0,3.02-.54,4.19-1.53l1.18-.99,3.77-.04c8.46,0,15.32-6.86,15.32-15.32v-20.26c0-8.46-6.86-15.32-15.32-15.32l-91.68-.99c-3.53,0-6.64,2.31-7.66,5.7l-.29.97c-3.68,12.25-3.68,27.29,0,39.55l.29.97c.58,1.93,1.86,3.49,3.49,4.5h-.05l3.9,2.24c.48.29,1.04.45,1.61.45h21.26c1.22,0,2.44-.08,3.66-.24l12.52-1.66,20.11-.22,2.62,2.2Z"/>
        <path class="cls-3" d="M71.17,21.98l22.48-3.37,19.86-4.01c-1.34-.38-2.76-.6-4.22-.6l-3.78-.04-1.16-.98c-1.17-.99-2.66-1.53-4.19-1.53h-21.09l-2.61,2.19-20.08-.21-12.56-1.66c-1.21-.16-2.43-.24-3.66-.24h-21.26c-.57,0-1.12.15-1.61.45l-3.9,2.24h.07c-1.01.62-1.89,1.46-2.55,2.48l5.43,4.2,12.38,1.48,42.44-.38Z"/>
        <path class="cls-1" d="M113.51,14.61l.91,2.48c1.48,4.04,4.16,7.53,7.68,10l2.49,1.75c-.22-6.77-4.82-12.43-11.07-14.22Z"/>
        <path class="cls-1" d="M113.51,64.35l.91-2.48c1.48-4.04,4.16-7.53,7.68-10l2.49-1.75c-.22,6.77-4.82,12.43-11.07,14.22Z"/>
        <path class="cls-4" d="M71.18,56.91l.65-2.71c2.3-9.58,2.33-19.57.06-29.16l-.72-3.06c-.15-.65.3-1.28.96-1.34l21.51-2.03c.5-.05.96.29,1.06.79l1.51,7.14c1.82,8.63,1.8,17.54-.05,26.16l-1.46,6.79c-.11.49-.56.83-1.06.78l-21.51-2.03c-.66-.06-1.12-.69-.96-1.34Z"/>
        <path class="cls-9" d="M97.2,32.77c-.23-2.08-.55-4.16-.98-6.22l-1.51-7.14c-.1-.49-.56-.83-1.06-.79l-21.51,2.03c-.66.06-1.12.69-.96,1.34l.72,3.06c.6,2.55,1.04,5.13,1.32,7.72h24Z"/>
        <path class="cls-9" d="M91.01,19.4l1.51,7.14c1.82,8.63,1.8,17.54-.05,26.16l-1.46,6.79c-.04.2-.16.37-.3.51l2.94.28c.5.05.96-.29,1.06-.78l1.46-6.79c1.85-8.62,1.87-17.53.05-26.16l-1.51-7.14c-.1-.49-.56-.83-1.06-.79l-2.94.28c.14.14.26.3.3.51Z"/>
        <path class="cls-9" d="M79.19,16.13l-6.01,2.33c-2.28.88-4.7,1.35-7.15,1.38l-30.68.28c-1.33.01-2.64-.26-3.84-.82l-3.09-3.23c-.18-.08-.12-.35.08-.35l50.62.06c.21,0,.26.28.07.36Z"/>
        <polygon class="cls-7" points="48.36 15.74 46.87 20.01 48.45 20 49.96 15.74 48.36 15.74"/>
        <path class="cls-4" d="M79.19,62.77l-6.01-2.33c-2.28-.88-4.7-1.35-7.15-1.38l-30.68-.28c-1.33-.01-2.64.26-3.84.82l-3.09,3.23c-.18.08-.12.35.08.35l50.62-.06c.21,0,.26-.28.07-.36Z"/>
        <polygon class="cls-8" points="46.87 58.89 48.36 63.16 49.97 63.15 48.45 58.9 46.87 58.89"/>
        <g>
          <path class="cls-4" d="M16.35,58.02l-1.11-7.16c-1.17-7.56-1.17-15.26,0-22.82l1.11-7.16c.05-.33.36-.57.7-.53l11.13,1.28c.36.04.61.37.55.73l-.8,4.79c-1.36,8.14-1.36,16.46,0,24.6l.8,4.79c.06.36-.19.69-.55.73l-11.13,1.28c-.34.04-.64-.2-.7-.53Z"/>
          <path class="cls-9" d="M25.49,50.86l1.02,6.6,1.67-.19c.36-.04.61-.37.55-.73l-.8-4.79c-1.36-8.14-1.36-16.46,0-24.6l.8-4.79c.06-.36-.19-.69-.55-.73l-1.67-.19-1.02,6.6c-1.17,7.56-1.17,15.26,0,22.82Z"/>
          <path class="cls-9" d="M27.22,32.77c.17-1.88.4-3.75.71-5.62l.8-4.79c.06-.36-.19-.69-.55-.73l-11.13-1.28c-.34-.04-.64.2-.7.53l-1.11,7.16c-.24,1.57-.42,3.15-.56,4.73h12.54Z"/>
        </g>
        <rect class="cls-4" x="37.72" y="22.67" width="23.87" height="33.56" rx="2.68" ry="2.68" transform="translate(89.1 -10.2) rotate(90)"/>
        <path class="cls-9" d="M66.43,48.7v-18.5c0-1.48-1.2-2.68-2.68-2.68h-2.17c1.48,0,2.68,1.2,2.68,2.68v18.5c0,1.48-1.2,2.68-2.68,2.68h2.17c1.48,0,2.68-1.2,2.68-2.68Z"/>
        <path class="cls-9" d="M59.85,46.04v-13.18c0-.67.54-1.21,1.21-1.21h0c.67,0,1.21.54,1.21,1.21v13.18c0,.67-.54,1.21-1.21,1.21h0c-.67,0-1.21-.54-1.21-1.21Z"/>
        <g>
          <path class="cls-3" d="M76.43,17.2l-2.57-6.76c-.51-1.35.17-2.86,1.52-3.37h0c1.35-.51,2.86.17,3.37,1.52l2.57,6.76-4.89,1.85Z"/>
          <path class="cls-8" d="M76.37,61.66l-2.47,6.8c-.51,1.35.18,2.86,1.53,3.37h0c1.35.51,2.86-.18,3.37-1.53l2.47-6.8-4.89-1.84Z"/>
        </g>
        <path class="cls-6" d="M15.05,13.44c-2.4.81-4.33,2.74-5.09,5.27l-.29.97c-.67,2.24-1.22,4.58-1.65,6.98,4.71-1.71,6.45-9.33,7.03-13.21Z"/>
        <path class="cls-2" d="M15.05,65.68c-2.4-.81-4.33-2.74-5.09-5.27l-.29-.97c-.67-2.24-1.22-4.58-1.65-6.98,4.71,1.71,6.45,9.33,7.03,13.21Z"/>
      </g>
    </g>
  </g>
</svg>